# xmcd CD database file
#
# Track frame offsets:
#	150
#	16094
#	32879
#	47830
#	63138
#	79686
#	97038
#	110375
#	126070
#	139572
#	156841
#	171079
#	185114
#	199030
#	218576
#	232578
#	246711
#	260877
#	278288
#	293173
#
# Disc length: 4177 seconds
#
# Revision: 0
# Processed by: cddbd v1.4PL0 Copyright (c) Steve Scherf et al.
# Submitted via: Feurio! 1.66 - http://www.feurio.com
#
DISCID=16104f14
DTITLE=Various Artist - Schlager Treff '98
DYEAR=1900
DGENRE=
TTITLE0=Claudia Jung - Ich Vermiss' Dich Zu Sehr
TTITLE1=G.G. Anderson - Immer Nur Du
TTITLE2=Feuer and Eis - Ti Amo (Ein Märchen Zuviel)
TTITLE3=Marco Polo - Wenn Aus Träumen Tränen Werden
TTITLE4=Dana Winner - Ich Hab' Noch Tausend Träume
TTITLE5=Drafi Deutscher und Kristina Bach - Gib Nicht Auf
TTITLE6=Duo Brillant - Zeig' Mir,Wo Die Rosen Blüh'n
TTITLE7=Silbermond - Du,Ich Bin Auch Nur Ein Mann
TTITLE8=Duo Wörle - Ich Denk' An Rhodos
TTITLE9=Chris Wolff - Insel Der Zärtlichkeit
TTITLE10=Nik P - Flieg,Weisser Adler
TTITLE11=Michael Stern - Ein Stern Der Deinen Namen Trägt
TTITLE12=Michelle - Kleine Prinzessin
TTITLE13=Taste Of Life - Das Gedicht
TTITLE14=Elke Sanders - Tränen Trocknen Schwer
TTITLE15=Die Flippers - Ein Herz Aus Schokolade
TTITLE16=Helly Kumpusch Band - Meine Sehnsucht Ruft Nach Dir
TTITLE17=Danny Davis - Eines Tages (Wirst Du Zu Mir Gehör'n)
TTITLE18=Marie Louise Werth and Marcel - Immer Wieder Liebe
TTITLE19=Guildo Horn and Die Orthopädischen Strümpfe - Das Schönste Lied Kennt 
TTITLE19=Guildo Horn
EXTD=
EXTT0=
EXTT1=
EXTT2=
EXTT3=
EXTT4=
EXTT5=
EXTT6=
EXTT7=
EXTT8=
EXTT9=
EXTT10=
EXTT11=
EXTT12=
EXTT13=
EXTT14=
EXTT15=
EXTT16=
EXTT17=
EXTT18=
EXTT19=
PLAYORDER=
